<svg xmlns="http://www.w3.org/2000/svg" viewBox="0 0 156.28 55.96"><g id="Layer_2" data-name="Layer 2"><g id="Layer_1-2" data-name="Layer 1"><path d="M130.7,12.86c3.62,0,6.15-2.64,6.15-6.42A6,6,0,0,0,130.7.16a5.94,5.94,0,0,0-6.14,6.28C124.56,10.28,127,12.86,130.7,12.86Z"></path><path d="M35.15,5.25C31.17,1.77,25.54,0,18.4,0,7.05,0,0,2.19,0,5.71V52c0,2.26,2.46,3.78,6.12,3.78s6.21-1.52,6.21-3.78V39a43.8,43.8,0,0,0,8.79,1c6.74,0,12-2,15.5-6,3-3.4,4.64-8.09,4.64-13.55C41.26,13.9,39.2,8.8,35.15,5.25ZM19.39,29.51a31.9,31.9,0,0,1-7.06-1V12.71a15.08,15.08,0,0,0-3.79-.1,43.46,43.46,0,0,1,5.88-1.28h0A27.78,27.78,0,0,1,18.57,11c3.41,0,6,.8,7.7,2.36s2.49,3.86,2.49,6.93C28.76,26.5,25.7,29.51,19.39,29.51Z"></path><path d="M86.46,44.21h0a19.91,19.91,0,0,0-3.4,1.48s.26-.22.75-.56c.88-.72,1.84-1.4,2.65-2V41.27h0V17.5c0-2.28-2.48-3.82-6.16-3.82s-6.17,1.54-6.17,3.82V39.74c-2.88,3.22-5.92,4.85-9,4.85-4.37,0-6.32-2.28-6.32-7.39V17.5c0-2.28-2.46-3.82-6.12-3.82s-6.13,1.54-6.13,3.82V40.58c0,9.31,5.6,15.1,14.61,15.1a21.67,21.67,0,0,0,13.71-4.63,7.05,7.05,0,0,0,7.06,4.83,12.74,12.74,0,0,0,5.49-1.32c2.66-1.33,3.78-5.05,3.16-7.68C90.06,44.77,88.35,43.65,86.46,44.21Z"></path><path d="M140.94,46.88c-.49-2.11-2.19-3.23-4.09-2.67h0a19.91,19.91,0,0,0-3.4,1.48s.27-.22.77-.58l-.67.35a37.71,37.71,0,0,1,3.3-2.45v-21c0-2.06-1.55-4.25-5.93-4.25H110V16.45c0-5.26,1.53-5.26,2.11-5.26a7.93,7.93,0,0,1,3,.85h0s0,0,.06,0h0a9.08,9.08,0,0,0,1.77.65l.13,0,.33.07.19,0,.3,0,.21,0h1l.27,0,.21,0,.25-.07a1.17,1.17,0,0,0,.2-.06l.23-.1.18-.09.22-.13.16-.13.19-.16a1.06,1.06,0,0,0,.15-.15l.16-.2a2,2,0,0,0,.12-.19,1.88,1.88,0,0,0,.14-.24l.09-.22a4.27,4.27,0,0,0,.18-.6c0-.08,0-.16,0-.24h0v0a7.74,7.74,0,0,0,0-1.74v-.1a9.26,9.26,0,0,0-.17-1h0a8,8,0,0,0-.32-1s0,0,0,0c-.93-2.36-3.13-4.55-7.12-5.54h-.06a16.17,16.17,0,0,0-4.4-.65C106.24.09,97.7,1.66,97.7,16.22V17.8h-3c-2.33,0-4,2.3-4,5.59s1.62,5.59,4,5.59h3V52c0,2.36,2.47,4,6.16,4S110,54.37,110,52V29h14.5V46.65c0,5.78,2.9,9.23,7.77,9.23a12.77,12.77,0,0,0,5.49-1.32C140.45,53.23,141.57,49.51,140.94,46.88Z"></path><path d="M147.05,5a4.62,4.62,0,1,1,4.61,4.62A4.61,4.61,0,0,1,147.05,5Zm8.51,0a3.9,3.9,0,1,0-3.9,3.91A3.91,3.91,0,0,0,155.56,4.94Z"></path><path d="M149.61,2.09c1,0,2.07,0,3.09.11a1.24,1.24,0,0,1,1.17,1.26,1.36,1.36,0,0,1-1,1.5l-.34.1a8.15,8.15,0,0,1,1.75,2.3c-.45,0-.84,0-1.24,0,0,0-.11-.1-.16-.16-.35-.52-.71-1-1-1.56a1.1,1.1,0,0,0-1.07-.45c-.15,0-.13.1-.13.2v2h-1Zm1.06,2.21c.53,0,1,0,1.55,0a.59.59,0,0,0,.57-.64A.59.59,0,0,0,152.2,3c-.38,0-.76,0-1.15,0h-.38Z"></path></g></g></svg>